<mxfile host="app.diagrams.net" modified="2024-01-28T20:00:18.307Z" agent="Mozilla/5.0 (Macintosh; Intel Mac OS X 10_15_7) AppleWebKit/537.36 (KHTML, like Gecko) Chrome/121.0.0.0 Safari/537.36" etag="WuHjKX-HO86LaTBKKIai" version="23.0.2" type="device">
  <diagram name="Page-1" id="MeW_tLhQMm5o--yPTLHu">
    <mxGraphModel dx="1590" dy="2023" grid="1" gridSize="10" guides="1" tooltips="1" connect="1" arrows="1" fold="1" page="1" pageScale="1" pageWidth="850" pageHeight="1100" math="0" shadow="0">
      <root>
        <mxCell id="0" />
        <mxCell id="1" parent="0" />
        <mxCell id="8RbIQKCaRCh_7Imwv6yf-4" value="VPC" style="points=[[0,0],[0.25,0],[0.5,0],[0.75,0],[1,0],[1,0.25],[1,0.5],[1,0.75],[1,1],[0.75,1],[0.5,1],[0.25,1],[0,1],[0,0.75],[0,0.5],[0,0.25]];outlineConnect=0;gradientColor=none;html=1;whiteSpace=wrap;fontSize=12;fontStyle=0;container=1;pointerEvents=0;collapsible=0;recursiveResize=0;shape=mxgraph.aws4.group;grIcon=mxgraph.aws4.group_vpc2;strokeColor=#8C4FFF;fillColor=none;verticalAlign=top;align=left;spacingLeft=30;fontColor=#AAB7B8;dashed=0;" vertex="1" parent="1">
          <mxGeometry x="20" y="-390" width="990" height="990" as="geometry" />
        </mxCell>
        <mxCell id="8RbIQKCaRCh_7Imwv6yf-5" value="Public subnet" style="points=[[0,0],[0.25,0],[0.5,0],[0.75,0],[1,0],[1,0.25],[1,0.5],[1,0.75],[1,1],[0.75,1],[0.5,1],[0.25,1],[0,1],[0,0.75],[0,0.5],[0,0.25]];outlineConnect=0;gradientColor=none;html=1;whiteSpace=wrap;fontSize=12;fontStyle=0;container=1;pointerEvents=0;collapsible=0;recursiveResize=0;shape=mxgraph.aws4.group;grIcon=mxgraph.aws4.group_security_group;grStroke=0;strokeColor=#7AA116;fillColor=#F2F6E8;verticalAlign=top;align=left;spacingLeft=30;fontColor=#248814;dashed=0;" vertex="1" parent="8RbIQKCaRCh_7Imwv6yf-4">
          <mxGeometry x="20" y="214" width="950" height="500" as="geometry" />
        </mxCell>
        <mxCell id="8RbIQKCaRCh_7Imwv6yf-9" value="Private subnet" style="points=[[0,0],[0.25,0],[0.5,0],[0.75,0],[1,0],[1,0.25],[1,0.5],[1,0.75],[1,1],[0.75,1],[0.5,1],[0.25,1],[0,1],[0,0.75],[0,0.5],[0,0.25]];outlineConnect=0;gradientColor=none;html=1;whiteSpace=wrap;fontSize=12;fontStyle=0;container=1;pointerEvents=0;collapsible=0;recursiveResize=0;shape=mxgraph.aws4.group;grIcon=mxgraph.aws4.group_security_group;grStroke=0;strokeColor=#00A4A6;fillColor=#E6F6F7;verticalAlign=top;align=left;spacingLeft=30;fontColor=#147EBA;dashed=0;" vertex="1" parent="8RbIQKCaRCh_7Imwv6yf-5">
          <mxGeometry y="220" width="950" height="280" as="geometry" />
        </mxCell>
        <mxCell id="8RbIQKCaRCh_7Imwv6yf-7" value="Availability zone B" style="sketch=0;outlineConnect=0;gradientColor=none;html=1;whiteSpace=wrap;fontSize=12;fontStyle=0;shape=mxgraph.aws4.group;grIcon=mxgraph.aws4.group_availability_zone;strokeColor=#545B64;fillColor=none;verticalAlign=top;align=left;spacingLeft=30;fontColor=#545B64;dashed=1;" vertex="1" parent="8RbIQKCaRCh_7Imwv6yf-9">
          <mxGeometry x="320" y="-280" width="310" height="560" as="geometry" />
        </mxCell>
        <mxCell id="8RbIQKCaRCh_7Imwv6yf-12" value="EC2 - Back-end" style="outlineConnect=0;dashed=0;verticalLabelPosition=bottom;verticalAlign=top;align=center;html=1;shape=mxgraph.aws3.ec2;fillColor=#F58534;gradientColor=none;" vertex="1" parent="8RbIQKCaRCh_7Imwv6yf-9">
          <mxGeometry x="436.75" y="-194" width="76.5" height="93" as="geometry" />
        </mxCell>
        <mxCell id="8RbIQKCaRCh_7Imwv6yf-6" value="Availability zone A" style="sketch=0;outlineConnect=0;gradientColor=none;html=1;whiteSpace=wrap;fontSize=12;fontStyle=0;shape=mxgraph.aws4.group;grIcon=mxgraph.aws4.group_availability_zone;strokeColor=#545B64;fillColor=none;verticalAlign=top;align=left;spacingLeft=30;fontColor=#545B64;dashed=1;" vertex="1" parent="8RbIQKCaRCh_7Imwv6yf-5">
          <mxGeometry x="-10" y="-60" width="300" height="560" as="geometry" />
        </mxCell>
        <mxCell id="8RbIQKCaRCh_7Imwv6yf-10" value="EC2 - Back-end" style="outlineConnect=0;dashed=0;verticalLabelPosition=bottom;verticalAlign=top;align=center;html=1;shape=mxgraph.aws3.ec2;fillColor=#F58534;gradientColor=none;" vertex="1" parent="8RbIQKCaRCh_7Imwv6yf-5">
          <mxGeometry x="30" y="26" width="76.5" height="93" as="geometry" />
        </mxCell>
        <mxCell id="8RbIQKCaRCh_7Imwv6yf-25" value="" style="outlineConnect=0;dashed=0;verticalLabelPosition=bottom;verticalAlign=top;align=center;html=1;shape=mxgraph.aws3.mysql_db_instance;fillColor=#2E73B8;gradientColor=none;" vertex="1" parent="8RbIQKCaRCh_7Imwv6yf-5">
          <mxGeometry x="160" y="290" width="90" height="90" as="geometry" />
        </mxCell>
        <mxCell id="8RbIQKCaRCh_7Imwv6yf-31" style="edgeStyle=orthogonalEdgeStyle;rounded=0;orthogonalLoop=1;jettySize=auto;html=1;entryX=0.5;entryY=0;entryDx=0;entryDy=0;entryPerimeter=0;flowAnimation=1;" edge="1" parent="8RbIQKCaRCh_7Imwv6yf-5" source="8RbIQKCaRCh_7Imwv6yf-10" target="8RbIQKCaRCh_7Imwv6yf-25">
          <mxGeometry relative="1" as="geometry" />
        </mxCell>
        <mxCell id="8RbIQKCaRCh_7Imwv6yf-8" value="Availability zone C" style="sketch=0;outlineConnect=0;gradientColor=none;html=1;whiteSpace=wrap;fontSize=12;fontStyle=0;shape=mxgraph.aws4.group;grIcon=mxgraph.aws4.group_availability_zone;strokeColor=#545B64;fillColor=none;verticalAlign=top;align=left;spacingLeft=30;fontColor=#545B64;dashed=1;" vertex="1" parent="8RbIQKCaRCh_7Imwv6yf-5">
          <mxGeometry x="660" y="-60" width="290" height="560" as="geometry" />
        </mxCell>
        <mxCell id="8RbIQKCaRCh_7Imwv6yf-21" style="edgeStyle=orthogonalEdgeStyle;rounded=0;orthogonalLoop=1;jettySize=auto;html=1;flowAnimation=1;" edge="1" parent="8RbIQKCaRCh_7Imwv6yf-5" target="8RbIQKCaRCh_7Imwv6yf-10">
          <mxGeometry relative="1" as="geometry">
            <mxPoint x="68.33333333333348" y="146" as="sourcePoint" />
          </mxGeometry>
        </mxCell>
        <mxCell id="8RbIQKCaRCh_7Imwv6yf-14" value="EC2 - Back-end" style="outlineConnect=0;dashed=0;verticalLabelPosition=bottom;verticalAlign=top;align=center;html=1;shape=mxgraph.aws3.ec2;fillColor=#F58534;gradientColor=none;" vertex="1" parent="8RbIQKCaRCh_7Imwv6yf-5">
          <mxGeometry x="800" y="26" width="76.5" height="93" as="geometry" />
        </mxCell>
        <mxCell id="8RbIQKCaRCh_7Imwv6yf-48" style="edgeStyle=orthogonalEdgeStyle;rounded=0;orthogonalLoop=1;jettySize=auto;html=1;entryX=1;entryY=0.5;entryDx=0;entryDy=0;entryPerimeter=0;flowAnimation=1;" edge="1" parent="8RbIQKCaRCh_7Imwv6yf-5" source="8RbIQKCaRCh_7Imwv6yf-12" target="8RbIQKCaRCh_7Imwv6yf-25">
          <mxGeometry relative="1" as="geometry" />
        </mxCell>
        <mxCell id="8RbIQKCaRCh_7Imwv6yf-49" style="edgeStyle=orthogonalEdgeStyle;rounded=0;orthogonalLoop=1;jettySize=auto;html=1;entryX=1;entryY=0.5;entryDx=0;entryDy=0;entryPerimeter=0;flowAnimation=1;" edge="1" parent="8RbIQKCaRCh_7Imwv6yf-5" source="8RbIQKCaRCh_7Imwv6yf-14" target="8RbIQKCaRCh_7Imwv6yf-25">
          <mxGeometry relative="1" as="geometry">
            <Array as="points">
              <mxPoint x="838" y="335" />
            </Array>
          </mxGeometry>
        </mxCell>
        <mxCell id="8RbIQKCaRCh_7Imwv6yf-3" value="Amazon EKS" style="sketch=0;outlineConnect=0;fontColor=#232F3E;gradientColor=none;strokeColor=#ffffff;fillColor=#232F3E;dashed=0;verticalLabelPosition=middle;verticalAlign=bottom;align=center;html=1;whiteSpace=wrap;fontSize=10;fontStyle=1;spacing=3;shape=mxgraph.aws4.productIcon;prIcon=mxgraph.aws4.eks;" vertex="1" parent="8RbIQKCaRCh_7Imwv6yf-4">
          <mxGeometry x="455" y="844" width="80" height="100" as="geometry" />
        </mxCell>
        <mxCell id="8RbIQKCaRCh_7Imwv6yf-26" style="edgeStyle=orthogonalEdgeStyle;rounded=0;orthogonalLoop=1;jettySize=auto;html=1;entryX=0.5;entryY=0.975;entryDx=0;entryDy=0;entryPerimeter=0;flowAnimation=1;" edge="1" parent="8RbIQKCaRCh_7Imwv6yf-4" source="8RbIQKCaRCh_7Imwv6yf-3" target="8RbIQKCaRCh_7Imwv6yf-25">
          <mxGeometry relative="1" as="geometry" />
        </mxCell>
        <mxCell id="8RbIQKCaRCh_7Imwv6yf-37" value="" style="edgeStyle=orthogonalEdgeStyle;rounded=0;orthogonalLoop=1;jettySize=auto;html=1;entryX=0.5;entryY=1;entryDx=0;entryDy=0;entryPerimeter=0;flowAnimation=1;" edge="1" parent="8RbIQKCaRCh_7Imwv6yf-4" source="8RbIQKCaRCh_7Imwv6yf-3" target="8RbIQKCaRCh_7Imwv6yf-10">
          <mxGeometry relative="1" as="geometry">
            <mxPoint x="475" y="504" as="sourcePoint" />
            <mxPoint x="88.33333333333348" y="432" as="targetPoint" />
          </mxGeometry>
        </mxCell>
        <mxCell id="8RbIQKCaRCh_7Imwv6yf-41" value="" style="edgeStyle=orthogonalEdgeStyle;rounded=0;orthogonalLoop=1;jettySize=auto;html=1;entryX=0.5;entryY=1;entryDx=0;entryDy=0;entryPerimeter=0;flowAnimation=1;" edge="1" parent="8RbIQKCaRCh_7Imwv6yf-4" source="8RbIQKCaRCh_7Imwv6yf-3" target="8RbIQKCaRCh_7Imwv6yf-14">
          <mxGeometry relative="1" as="geometry">
            <mxPoint x="555" y="504" as="sourcePoint" />
            <mxPoint x="905" y="432" as="targetPoint" />
          </mxGeometry>
        </mxCell>
        <mxCell id="8RbIQKCaRCh_7Imwv6yf-46" style="edgeStyle=orthogonalEdgeStyle;rounded=0;orthogonalLoop=1;jettySize=auto;html=1;flowAnimation=1;" edge="1" parent="8RbIQKCaRCh_7Imwv6yf-4" source="8RbIQKCaRCh_7Imwv6yf-42" target="8RbIQKCaRCh_7Imwv6yf-14">
          <mxGeometry relative="1" as="geometry" />
        </mxCell>
        <mxCell id="8RbIQKCaRCh_7Imwv6yf-42" value="" style="outlineConnect=0;dashed=0;verticalLabelPosition=bottom;verticalAlign=top;align=center;html=1;shape=mxgraph.aws3.application_load_balancer;fillColor=#F58536;gradientColor=none;" vertex="1" parent="8RbIQKCaRCh_7Imwv6yf-4">
          <mxGeometry x="455" y="10" width="69" height="72" as="geometry" />
        </mxCell>
        <mxCell id="8RbIQKCaRCh_7Imwv6yf-43" value="EKS Service - LoadBalancer" style="text;html=1;strokeColor=none;fillColor=none;align=center;verticalAlign=middle;whiteSpace=wrap;rounded=0;" vertex="1" parent="8RbIQKCaRCh_7Imwv6yf-4">
          <mxGeometry x="524" y="20" width="160" height="30" as="geometry" />
        </mxCell>
        <mxCell id="8RbIQKCaRCh_7Imwv6yf-45" style="edgeStyle=orthogonalEdgeStyle;rounded=0;orthogonalLoop=1;jettySize=auto;html=1;entryX=0.5;entryY=0;entryDx=0;entryDy=0;entryPerimeter=0;flowAnimation=1;" edge="1" parent="8RbIQKCaRCh_7Imwv6yf-4" source="8RbIQKCaRCh_7Imwv6yf-42" target="8RbIQKCaRCh_7Imwv6yf-10">
          <mxGeometry relative="1" as="geometry" />
        </mxCell>
        <mxCell id="8RbIQKCaRCh_7Imwv6yf-39" value="" style="edgeStyle=orthogonalEdgeStyle;rounded=0;orthogonalLoop=1;jettySize=auto;html=1;entryX=0.5;entryY=1;entryDx=0;entryDy=0;entryPerimeter=0;flowAnimation=1;" edge="1" parent="8RbIQKCaRCh_7Imwv6yf-4" source="8RbIQKCaRCh_7Imwv6yf-3" target="8RbIQKCaRCh_7Imwv6yf-12">
          <mxGeometry relative="1" as="geometry">
            <mxPoint x="515" y="454" as="sourcePoint" />
            <mxPoint x="428.25" y="434" as="targetPoint" />
          </mxGeometry>
        </mxCell>
        <mxCell id="8RbIQKCaRCh_7Imwv6yf-47" style="edgeStyle=orthogonalEdgeStyle;rounded=0;orthogonalLoop=1;jettySize=auto;html=1;entryX=0.5;entryY=0;entryDx=0;entryDy=0;entryPerimeter=0;flowAnimation=1;" edge="1" parent="8RbIQKCaRCh_7Imwv6yf-4" source="8RbIQKCaRCh_7Imwv6yf-42" target="8RbIQKCaRCh_7Imwv6yf-12">
          <mxGeometry relative="1" as="geometry" />
        </mxCell>
        <mxCell id="8RbIQKCaRCh_7Imwv6yf-35" style="edgeStyle=orthogonalEdgeStyle;rounded=0;orthogonalLoop=1;jettySize=auto;html=1;flowAnimation=1;" edge="1" parent="1" source="8RbIQKCaRCh_7Imwv6yf-19" target="8RbIQKCaRCh_7Imwv6yf-20">
          <mxGeometry relative="1" as="geometry" />
        </mxCell>
        <mxCell id="8RbIQKCaRCh_7Imwv6yf-19" value="" style="image;aspect=fixed;perimeter=ellipsePerimeter;html=1;align=center;shadow=0;dashed=0;spacingTop=3;image=img/lib/active_directory/user.svg;" vertex="1" parent="1">
          <mxGeometry x="279.25" y="697" width="48.1" height="130" as="geometry" />
        </mxCell>
        <mxCell id="8RbIQKCaRCh_7Imwv6yf-20" value="Amazon Route 53" style="sketch=0;outlineConnect=0;fontColor=#232F3E;gradientColor=none;strokeColor=#ffffff;fillColor=#232F3E;dashed=0;verticalLabelPosition=middle;verticalAlign=bottom;align=center;html=1;whiteSpace=wrap;fontSize=10;fontStyle=1;spacing=3;shape=mxgraph.aws4.productIcon;prIcon=mxgraph.aws4.route_53;" vertex="1" parent="1">
          <mxGeometry x="476" y="707" width="80" height="110" as="geometry" />
        </mxCell>
        <mxCell id="8RbIQKCaRCh_7Imwv6yf-34" style="edgeStyle=orthogonalEdgeStyle;rounded=0;orthogonalLoop=1;jettySize=auto;html=1;entryX=0.522;entryY=0.8;entryDx=0;entryDy=0;entryPerimeter=0;flowAnimation=1;" edge="1" parent="1" source="8RbIQKCaRCh_7Imwv6yf-20" target="8RbIQKCaRCh_7Imwv6yf-3">
          <mxGeometry relative="1" as="geometry" />
        </mxCell>
      </root>
    </mxGraphModel>
  </diagram>
</mxfile>
